<svg xmlns="http://www.w3.org/2000/svg" xmlns:xlink="http://www.w3.org/1999/xlink" width="158" zoomAndPan="magnify" viewBox="0 0 118.5 36.000001" height="48" preserveAspectRatio="xMidYMid meet" version="1.0"><path fill="#000000" d="M 16.921875 21.710938 L 17.292969 21.710938 C 17.617188 21.710938 17.804688 21.667969 17.847656 21.621094 C 17.941406 21.574219 17.988281 21.484375 17.988281 21.347656 C 17.988281 21.257812 18.035156 20.984375 18.035156 20.253906 L 18.035156 16.789062 C 18.035156 16.058594 17.988281 15.832031 17.988281 15.738281 C 17.988281 15.648438 17.941406 15.558594 17.847656 15.511719 C 17.804688 15.511719 17.664062 15.464844 17.246094 15.464844 L 17.015625 15.464844 L 16.921875 14.964844 L 20.441406 14.917969 L 20.535156 15.511719 L 20.210938 15.511719 C 19.746094 15.511719 19.609375 15.558594 19.609375 15.558594 C 19.5625 15.601562 19.46875 15.648438 19.46875 15.785156 C 19.46875 15.875 19.425781 16.105469 19.425781 16.878906 L 19.425781 18.109375 L 22.898438 18.066406 L 22.851562 16.832031 C 22.851562 16.332031 22.851562 15.921875 22.804688 15.738281 C 22.804688 15.648438 22.757812 15.558594 22.664062 15.511719 C 22.621094 15.511719 22.527344 15.464844 22.0625 15.464844 L 21.785156 15.464844 L 21.691406 14.964844 L 25.210938 14.917969 L 25.304688 15.511719 L 24.980469 15.511719 C 24.5625 15.511719 24.425781 15.558594 24.378906 15.558594 C 24.332031 15.601562 24.285156 15.648438 24.238281 15.785156 C 24.195312 15.921875 24.195312 16.285156 24.195312 16.878906 L 24.195312 20.34375 C 24.195312 20.890625 24.195312 21.257812 24.238281 21.4375 C 24.285156 21.574219 24.332031 21.667969 24.378906 21.710938 C 24.425781 21.757812 24.5625 21.804688 24.933594 21.804688 L 25.167969 21.804688 L 25.257812 22.351562 L 21.738281 22.351562 L 21.648438 21.804688 L 22.0625 21.804688 C 22.386719 21.804688 22.574219 21.757812 22.621094 21.710938 C 22.710938 21.667969 22.757812 21.574219 22.757812 21.484375 C 22.804688 21.300781 22.804688 20.890625 22.804688 20.390625 L 22.804688 18.792969 L 19.332031 18.839844 L 19.378906 20.390625 C 19.378906 20.984375 19.378906 21.300781 19.425781 21.4375 C 19.425781 21.574219 19.46875 21.667969 19.5625 21.710938 C 19.609375 21.757812 19.746094 21.804688 20.117188 21.804688 L 20.394531 21.804688 L 20.488281 22.304688 L 16.96875 22.351562 Z M 16.921875 21.710938 " fill-opacity="1" fill-rule="nonzero"/><path fill="#000000" d="M 30.304688 22.394531 C 29.148438 22.394531 28.128906 22.03125 27.390625 21.347656 C 26.601562 20.617188 26.230469 19.707031 26.230469 18.566406 C 26.230469 17.425781 26.601562 16.515625 27.390625 15.832031 C 28.175781 15.144531 29.101562 14.78125 30.261719 14.78125 C 31.417969 14.78125 32.390625 15.144531 33.179688 15.785156 C 33.964844 16.46875 34.382812 17.425781 34.382812 18.566406 C 34.382812 19.707031 34.011719 20.617188 33.269531 21.347656 C 32.484375 22.078125 31.511719 22.394531 30.304688 22.394531 Z M 30.304688 15.375 C 29.472656 15.375 28.871094 15.648438 28.453125 16.195312 C 28.039062 16.742188 27.804688 17.5625 27.804688 18.613281 C 27.804688 19.707031 28.039062 20.527344 28.453125 21.074219 C 28.871094 21.621094 29.519531 21.847656 30.398438 21.847656 C 31.140625 21.847656 31.742188 21.574219 32.160156 21.074219 C 32.621094 20.527344 32.808594 19.707031 32.808594 18.613281 C 32.808594 17.5625 32.574219 16.742188 32.160156 16.195312 C 31.742188 15.648438 31.140625 15.375 30.304688 15.375 Z M 30.304688 15.375 " fill-opacity="1" fill-rule="nonzero"/><path fill="#000000" d="M 35.445312 22.304688 L 35.355469 21.710938 L 35.726562 21.710938 C 36.09375 21.710938 36.234375 21.667969 36.28125 21.621094 C 36.375 21.574219 36.417969 21.484375 36.464844 21.347656 C 36.464844 21.347656 36.511719 21.074219 36.511719 20.253906 L 36.511719 16.789062 C 36.511719 16.332031 36.511719 15.921875 36.464844 15.695312 C 36.417969 15.558594 36.375 15.511719 36.328125 15.464844 C 36.28125 15.421875 36.140625 15.421875 35.679688 15.421875 L 35.445312 15.421875 L 35.355469 14.917969 L 36.652344 14.871094 C 37.253906 14.871094 37.761719 14.828125 38.085938 14.828125 C 38.875 14.828125 39.429688 14.871094 39.847656 15.007812 C 40.261719 15.144531 40.632812 15.328125 40.910156 15.648438 C 41.1875 15.96875 41.328125 16.378906 41.328125 16.832031 C 41.328125 17.242188 41.234375 17.609375 41.050781 17.929688 C 40.863281 18.246094 40.585938 18.476562 40.21875 18.65625 C 39.894531 18.839844 39.289062 18.886719 38.457031 18.886719 L 37.761719 18.886719 L 37.808594 20.207031 C 37.808594 20.753906 37.808594 21.121094 37.855469 21.300781 C 37.902344 21.4375 37.949219 21.53125 37.992188 21.574219 C 38.039062 21.621094 38.179688 21.667969 38.550781 21.667969 L 38.875 21.667969 L 38.964844 22.214844 L 35.445312 22.214844 Z M 38.179688 18.382812 C 38.597656 18.382812 38.875 18.339844 39.105469 18.292969 C 39.335938 18.246094 39.476562 18.066406 39.660156 17.835938 C 39.800781 17.609375 39.894531 17.335938 39.894531 16.96875 C 39.894531 16.421875 39.753906 16.058594 39.523438 15.785156 C 39.246094 15.558594 38.828125 15.421875 38.226562 15.421875 C 38.039062 15.421875 37.902344 15.421875 37.808594 15.421875 L 37.855469 18.382812 Z M 38.179688 18.382812 " fill-opacity="1" fill-rule="nonzero"/><path fill="#000000" d="M 42.441406 22.304688 L 42.347656 21.710938 L 42.71875 21.710938 C 43.089844 21.710938 43.226562 21.667969 43.273438 21.621094 C 43.367188 21.574219 43.414062 21.484375 43.457031 21.347656 C 43.457031 21.210938 43.503906 20.847656 43.503906 20.253906 L 43.503906 16.789062 C 43.503906 16.242188 43.503906 15.875 43.457031 15.738281 C 43.414062 15.648438 43.367188 15.558594 43.320312 15.511719 C 43.226562 15.464844 43.042969 15.464844 42.671875 15.464844 L 42.441406 15.464844 L 42.347656 14.917969 L 43.691406 14.871094 C 44.292969 14.871094 44.753906 14.828125 45.125 14.828125 C 45.867188 14.828125 46.46875 14.871094 46.886719 15.007812 C 47.300781 15.144531 47.671875 15.328125 47.949219 15.648438 C 48.226562 15.96875 48.367188 16.378906 48.367188 16.832031 C 48.367188 17.242188 48.273438 17.609375 48.089844 17.929688 C 47.902344 18.246094 47.625 18.476562 47.253906 18.65625 C 46.886719 18.839844 46.328125 18.886719 45.449219 18.886719 L 44.800781 18.886719 L 44.847656 20.207031 C 44.847656 20.800781 44.847656 21.121094 44.894531 21.300781 C 44.941406 21.4375 44.988281 21.53125 45.03125 21.574219 C 45.078125 21.621094 45.21875 21.667969 45.589844 21.667969 L 45.914062 21.667969 L 45.960938 22.214844 L 42.441406 22.214844 Z M 45.171875 18.382812 C 45.589844 18.382812 45.867188 18.339844 46.097656 18.292969 C 46.328125 18.246094 46.46875 18.066406 46.652344 17.835938 C 46.792969 17.609375 46.886719 17.335938 46.886719 16.96875 C 46.886719 16.421875 46.746094 16.058594 46.515625 15.785156 C 46.238281 15.558594 45.820312 15.421875 45.21875 15.421875 C 45.03125 15.421875 44.894531 15.421875 44.800781 15.421875 L 44.847656 18.382812 Z M 45.171875 18.382812 " fill-opacity="1" fill-rule="nonzero"/><path fill="#000000" d="M 49.433594 22.304688 L 49.339844 21.710938 L 49.664062 21.710938 C 50.128906 21.710938 50.21875 21.621094 50.21875 21.621094 C 50.3125 21.53125 50.359375 21.4375 50.40625 21.347656 C 50.40625 21.210938 50.453125 20.890625 50.453125 20.296875 L 50.453125 16.832031 C 50.453125 16.242188 50.453125 15.921875 50.40625 15.785156 C 50.359375 15.601562 50.3125 15.558594 50.265625 15.558594 C 50.21875 15.511719 50.082031 15.464844 49.664062 15.464844 L 49.570312 15.464844 L 49.480469 14.917969 L 54.898438 14.871094 L 55.128906 16.878906 L 54.617188 16.96875 L 54.574219 16.878906 C 54.386719 16.332031 54.292969 16.011719 54.15625 15.875 C 54.015625 15.695312 53.832031 15.601562 53.648438 15.558594 C 53.414062 15.511719 53.089844 15.464844 52.582031 15.464844 L 51.703125 15.464844 L 51.746094 18.15625 L 52.351562 18.109375 C 52.675781 18.109375 52.90625 18.066406 53 18.019531 C 53.089844 17.972656 53.136719 17.929688 53.183594 17.835938 C 53.230469 17.746094 53.277344 17.5625 53.277344 17.199219 L 53.277344 17.105469 L 53.785156 17.015625 L 53.832031 19.707031 L 53.324219 19.796875 L 53.324219 19.660156 C 53.277344 19.25 53.230469 19.023438 53.183594 18.886719 C 53.136719 18.792969 53.089844 18.75 53 18.703125 C 52.859375 18.65625 52.675781 18.65625 52.394531 18.65625 L 51.703125 18.65625 L 51.746094 20.160156 C 51.746094 21.257812 51.839844 21.53125 51.886719 21.574219 C 51.886719 21.621094 52.027344 21.710938 52.628906 21.710938 L 53.183594 21.710938 C 53.554688 21.710938 53.832031 21.667969 54.0625 21.574219 C 54.25 21.484375 54.480469 21.300781 54.664062 21.027344 C 54.898438 20.753906 55.035156 20.34375 55.175781 19.84375 L 55.175781 19.75 L 55.683594 19.707031 L 55.683594 19.980469 L 55.589844 22.214844 L 49.433594 22.214844 Z M 49.433594 22.304688 " fill-opacity="1" fill-rule="nonzero"/><path fill="#000000" d="M 56.703125 21.710938 L 57.121094 21.710938 C 57.492188 21.710938 57.628906 21.621094 57.628906 21.621094 C 57.722656 21.574219 57.769531 21.484375 57.8125 21.347656 C 57.859375 21.164062 57.859375 20.753906 57.859375 20.253906 L 57.859375 16.789062 C 57.859375 16.285156 57.859375 15.875 57.8125 15.738281 C 57.8125 15.648438 57.769531 15.558594 57.675781 15.511719 C 57.628906 15.511719 57.488281 15.464844 57.027344 15.464844 L 56.796875 15.464844 L 56.75 14.917969 L 57.953125 14.871094 C 58.554688 14.828125 59.109375 14.828125 59.574219 14.828125 C 60.269531 14.828125 60.824219 14.871094 61.289062 15.007812 C 61.75 15.144531 62.121094 15.375 62.398438 15.648438 C 62.675781 15.96875 62.816406 16.332031 62.816406 16.789062 C 62.816406 17.289062 62.628906 17.746094 62.261719 18.066406 C 61.980469 18.339844 61.566406 18.566406 61.054688 18.65625 C 61.378906 18.929688 61.75 19.386719 62.214844 20.023438 C 62.769531 20.753906 63.1875 21.210938 63.464844 21.394531 C 63.742188 21.621094 64.066406 21.710938 64.484375 21.710938 L 64.574219 21.710938 L 64.667969 22.257812 L 62.492188 22.257812 C 62.121094 21.984375 61.566406 21.394531 60.871094 20.34375 C 60.6875 20.070312 60.453125 19.796875 60.175781 19.433594 C 59.898438 19.066406 59.757812 18.976562 59.714844 18.929688 C 59.667969 18.886719 59.527344 18.886719 59.390625 18.886719 L 59.203125 18.886719 L 59.25 20.296875 C 59.25 20.800781 59.25 21.210938 59.296875 21.394531 C 59.296875 21.53125 59.390625 21.621094 59.433594 21.667969 C 59.527344 21.710938 59.714844 21.757812 59.992188 21.757812 L 60.453125 21.757812 L 60.546875 22.257812 L 56.84375 22.304688 Z M 59.25 18.339844 L 59.34375 18.339844 C 59.527344 18.339844 59.714844 18.339844 59.898438 18.339844 C 60.128906 18.339844 60.363281 18.292969 60.59375 18.246094 C 60.777344 18.203125 60.917969 18.109375 61.007812 18.019531 C 61.148438 17.882812 61.242188 17.789062 61.289062 17.609375 C 61.378906 17.425781 61.378906 17.199219 61.378906 16.925781 C 61.378906 16.46875 61.289062 16.105469 61.054688 15.832031 C 60.824219 15.558594 60.316406 15.421875 59.527344 15.421875 C 59.433594 15.421875 59.34375 15.421875 59.203125 15.421875 Z M 59.25 18.339844 " fill-opacity="1" fill-rule="nonzero"/><path fill="#000000" d="M 68.328125 22.394531 C 67.585938 22.394531 66.9375 22.121094 66.382812 21.621094 C 66.335938 21.757812 66.289062 21.894531 66.242188 22.078125 L 66.242188 22.167969 L 65.734375 22.214844 L 65.6875 19.660156 L 66.195312 19.570312 L 66.242188 19.660156 C 66.566406 21.121094 67.214844 21.757812 68.234375 21.757812 C 68.695312 21.757812 69.066406 21.621094 69.300781 21.394531 C 69.53125 21.121094 69.667969 20.847656 69.667969 20.574219 C 69.667969 20.253906 69.578125 20.023438 69.34375 19.796875 C 69.113281 19.570312 68.695312 19.339844 68.046875 19.066406 C 67.402344 18.792969 66.984375 18.566406 66.753906 18.429688 C 66.429688 18.246094 66.195312 17.972656 66.011719 17.652344 C 65.824219 17.335938 65.734375 17.015625 65.734375 16.652344 C 65.734375 16.105469 65.917969 15.648438 66.289062 15.28125 C 66.707031 14.917969 67.167969 14.734375 67.769531 14.734375 C 68.09375 14.734375 68.417969 14.78125 68.695312 14.917969 C 68.929688 15.007812 69.207031 15.191406 69.4375 15.421875 C 69.484375 15.28125 69.53125 15.144531 69.578125 15.007812 L 69.578125 14.917969 L 70.085938 14.828125 L 70.132812 16.96875 L 69.667969 17.015625 L 69.625 16.925781 C 69.484375 16.378906 69.253906 15.96875 68.929688 15.695312 C 68.605469 15.421875 68.28125 15.28125 67.863281 15.28125 C 67.492188 15.28125 67.214844 15.375 67.03125 15.558594 C 66.84375 15.738281 66.753906 15.96875 66.753906 16.195312 C 66.753906 16.46875 66.84375 16.695312 67.078125 16.925781 C 67.308594 17.152344 67.726562 17.378906 68.371094 17.652344 C 68.976562 17.929688 69.4375 18.15625 69.714844 18.339844 C 70.039062 18.519531 70.273438 18.75 70.457031 19.066406 C 70.640625 19.386719 70.734375 19.75 70.734375 20.160156 C 70.734375 20.800781 70.503906 21.347656 70.085938 21.757812 C 69.625 22.214844 69.019531 22.394531 68.328125 22.394531 Z M 68.328125 22.394531 " fill-opacity="1" fill-rule="nonzero"/><path fill="#000000" d="M 87.777344 22.304688 L 87.683594 21.757812 L 88.238281 21.757812 C 88.5625 21.757812 88.703125 21.710938 88.796875 21.667969 C 88.839844 21.621094 88.933594 21.53125 88.933594 21.4375 C 88.980469 21.300781 88.980469 20.9375 88.980469 20.34375 L 88.980469 15.464844 L 88.101562 15.511719 C 87.683594 15.511719 87.359375 15.511719 87.222656 15.558594 C 87.082031 15.601562 86.988281 15.695312 86.851562 15.875 C 86.710938 16.058594 86.617188 16.421875 86.574219 16.832031 L 86.574219 16.925781 L 86.0625 16.96875 L 86.0625 14.964844 L 93.289062 14.917969 L 93.378906 16.878906 L 92.917969 16.96875 L 92.871094 16.878906 C 92.730469 16.332031 92.640625 16.058594 92.5 15.921875 C 92.359375 15.738281 92.269531 15.648438 92.128906 15.601562 C 91.992188 15.558594 91.757812 15.558594 91.34375 15.558594 L 90.324219 15.558594 L 90.371094 20.34375 C 90.371094 20.847656 90.371094 21.257812 90.417969 21.394531 C 90.417969 21.53125 90.507812 21.621094 90.554688 21.667969 C 90.601562 21.710938 90.742188 21.757812 91.109375 21.757812 L 91.574219 21.757812 L 91.667969 22.304688 Z M 87.777344 22.304688 " fill-opacity="1" fill-rule="nonzero"/><path fill="#000000" d="M 98.289062 22.394531 C 97.132812 22.394531 96.113281 22.03125 95.371094 21.347656 C 94.628906 20.664062 94.214844 19.707031 94.214844 18.566406 C 94.214844 17.425781 94.585938 16.515625 95.371094 15.832031 C 96.160156 15.144531 97.085938 14.78125 98.242188 14.78125 C 99.398438 14.78125 100.371094 15.144531 101.160156 15.785156 C 101.949219 16.46875 102.363281 17.378906 102.363281 18.566406 C 102.363281 19.707031 101.992188 20.617188 101.253906 21.347656 C 100.464844 22.078125 99.492188 22.394531 98.289062 22.394531 Z M 98.242188 15.375 C 97.457031 15.375 96.808594 15.648438 96.390625 16.148438 C 95.972656 16.695312 95.742188 17.472656 95.742188 18.566406 C 95.742188 19.660156 95.972656 20.480469 96.390625 21.027344 C 96.808594 21.574219 97.457031 21.804688 98.335938 21.804688 C 99.074219 21.804688 99.679688 21.53125 100.140625 21.027344 C 100.605469 20.480469 100.789062 19.660156 100.789062 18.566406 C 100.789062 17.515625 100.558594 16.695312 100.140625 16.148438 C 99.722656 15.648438 99.074219 15.375 98.242188 15.375 Z M 98.242188 15.375 " fill-opacity="1" fill-rule="nonzero"/><path fill="#000000" d="M 103.242188 22.304688 L 103.152344 21.757812 L 103.523438 21.757812 C 103.753906 21.757812 103.9375 21.710938 104.078125 21.667969 C 104.171875 21.621094 104.214844 21.53125 104.214844 21.4375 C 104.261719 21.300781 104.261719 20.9375 104.261719 20.34375 L 104.261719 16.878906 C 104.261719 16.285156 104.261719 15.96875 104.214844 15.832031 C 104.171875 15.695312 104.125 15.648438 104.078125 15.601562 C 104.03125 15.601562 103.890625 15.558594 103.429688 15.558594 L 103.242188 15.558594 L 103.199219 14.964844 L 104.496094 14.917969 C 105.097656 14.917969 105.558594 14.871094 105.929688 14.871094 C 106.71875 14.871094 107.273438 14.917969 107.691406 15.054688 C 108.105469 15.191406 108.476562 15.375 108.753906 15.695312 C 109.03125 16.011719 109.171875 16.421875 109.171875 16.878906 C 109.171875 17.289062 109.078125 17.652344 108.894531 17.972656 C 108.707031 18.292969 108.429688 18.566406 108.058594 18.703125 C 107.734375 18.886719 107.132812 18.929688 106.253906 18.929688 L 105.605469 18.929688 L 105.652344 20.253906 C 105.652344 21.027344 105.699219 21.300781 105.699219 21.347656 C 105.699219 21.484375 105.746094 21.53125 105.835938 21.621094 C 105.882812 21.667969 106.023438 21.710938 106.394531 21.710938 L 106.71875 21.710938 L 106.808594 22.257812 L 103.242188 22.257812 Z M 105.976562 18.382812 C 106.394531 18.382812 106.671875 18.339844 106.902344 18.292969 C 107.132812 18.203125 107.320312 18.066406 107.457031 17.835938 C 107.597656 17.609375 107.691406 17.289062 107.691406 16.96875 C 107.691406 16.421875 107.550781 16.058594 107.320312 15.785156 C 107.042969 15.558594 106.625 15.421875 106.023438 15.421875 C 105.835938 15.421875 105.699219 15.421875 105.605469 15.421875 L 105.652344 18.382812 Z M 105.976562 18.382812 " fill-opacity="1" fill-rule="nonzero"/><path fill="#000000" d="M 12.753906 22.441406 C 11.738281 22.441406 10.855469 22.078125 10.160156 21.347656 C 10.070312 21.53125 10.023438 21.757812 9.929688 22.03125 L 9.929688 22.121094 L 9.375 22.214844 L 9.328125 18.886719 L 9.882812 18.839844 L 9.882812 18.929688 C 10.300781 20.847656 11.179688 21.804688 12.617188 21.804688 C 13.265625 21.804688 13.773438 21.621094 14.097656 21.300781 C 14.46875 20.9375 14.609375 20.574219 14.609375 20.117188 C 14.609375 19.613281 14.46875 19.160156 14.191406 18.886719 C 13.914062 18.613281 13.3125 18.246094 12.429688 17.882812 C 11.738281 17.609375 11.089844 17.335938 10.671875 17.0625 C 10.253906 16.832031 9.835938 16.515625 9.605469 16.105469 C 9.328125 15.601562 9.28125 15.101562 9.28125 14.871094 C 9.28125 14.144531 9.558594 13.550781 10.023438 13.09375 C 10.53125 12.636719 11.179688 12.363281 11.921875 12.363281 C 12.339844 12.363281 12.753906 12.457031 13.125 12.59375 C 13.449219 12.730469 13.820312 12.957031 14.191406 13.324219 C 14.285156 13.09375 14.375 12.910156 14.375 12.730469 L 14.375 12.636719 L 14.933594 12.59375 L 14.976562 15.328125 L 14.5625 15.375 L 14.515625 15.28125 C 14.285156 14.507812 14.003906 13.960938 13.589844 13.597656 C 13.171875 13.230469 12.664062 13.003906 12.105469 13.003906 C 11.597656 13.003906 11.132812 13.140625 10.902344 13.414062 C 10.671875 13.6875 10.53125 14.007812 10.53125 14.324219 C 10.53125 14.734375 10.71875 15.144531 10.996094 15.421875 C 11.320312 15.738281 11.921875 16.058594 12.753906 16.421875 C 13.589844 16.789062 14.191406 17.0625 14.5625 17.289062 C 15.023438 17.5625 15.347656 17.835938 15.535156 18.203125 C 15.765625 18.613281 15.859375 18.976562 15.859375 19.523438 C 15.859375 20.34375 15.582031 21.074219 14.976562 21.574219 C 14.46875 22.214844 13.726562 22.441406 12.753906 22.441406 Z M 12.753906 22.441406 " fill-opacity="1" fill-rule="nonzero"/><path fill="#000000" d="M 81.988281 22.441406 C 80.96875 22.441406 80.089844 22.078125 79.394531 21.347656 C 79.300781 21.53125 79.253906 21.757812 79.210938 22.03125 L 79.210938 22.121094 L 78.652344 22.167969 L 78.605469 18.886719 L 79.164062 18.839844 L 79.164062 18.929688 C 79.578125 20.847656 80.460938 21.804688 81.894531 21.804688 C 82.542969 21.804688 83.054688 21.621094 83.378906 21.300781 C 83.746094 20.9375 83.886719 20.574219 83.886719 20.117188 C 83.886719 19.613281 83.746094 19.113281 83.46875 18.886719 C 83.191406 18.613281 82.589844 18.246094 81.710938 17.882812 C 81.015625 17.609375 80.367188 17.335938 79.949219 17.0625 C 79.535156 16.789062 79.117188 16.515625 78.886719 16.105469 C 78.605469 15.648438 78.5625 15.191406 78.5625 14.871094 C 78.5625 14.144531 78.792969 13.550781 79.300781 13.09375 C 79.8125 12.636719 80.460938 12.363281 81.199219 12.363281 C 81.617188 12.363281 82.035156 12.410156 82.40625 12.546875 C 82.773438 12.683594 83.097656 12.910156 83.46875 13.277344 C 83.609375 13.050781 83.65625 12.867188 83.65625 12.683594 L 83.65625 12.59375 L 84.210938 12.546875 L 84.257812 15.28125 L 83.792969 15.375 L 83.746094 15.28125 C 83.515625 14.507812 83.238281 13.960938 82.820312 13.597656 C 82.40625 13.230469 81.894531 13.003906 81.339844 13.003906 C 80.832031 13.003906 80.367188 13.140625 80.136719 13.414062 C 79.902344 13.6875 79.765625 14.007812 79.765625 14.324219 C 79.765625 14.734375 79.949219 15.144531 80.226562 15.421875 C 80.550781 15.738281 81.15625 16.105469 81.988281 16.421875 C 82.960938 16.878906 83.46875 17.105469 83.792969 17.289062 C 84.257812 17.5625 84.582031 17.835938 84.765625 18.203125 C 84.996094 18.613281 85.089844 18.976562 85.089844 19.523438 C 85.089844 20.34375 84.8125 21.074219 84.210938 21.621094 C 83.746094 22.214844 82.960938 22.441406 81.988281 22.441406 Z M 81.988281 22.441406 " fill-opacity="1" fill-rule="nonzero"/></svg>